<svg xmlns="http://www.w3.org/2000/svg" id="uuid-e8d434b7-5ee9-482b-b4c3-ebd80b47b1a1" viewBox="0 0 224.89 41.14"><defs><style>.uuid-4952f7b9-0aa6-47f7-9b67-26fce97dddb5{fill:#fffbf0;}</style></defs><path class="uuid-4952f7b9-0aa6-47f7-9b67-26fce97dddb5" d="M16.24,23.46H4.1v14.01H.46V2.73h15.78c5.58,0,10.16,4.01,10.16,10.36s-4.38,10.37-10.16,10.37m.06-17.3H4.1v13.86h12.2c3.49,0,6.25-2.87,6.25-6.93s-2.86-6.93-6.25-6.93"></path><path class="uuid-4952f7b9-0aa6-47f7-9b67-26fce97dddb5" d="M45.94,38.1c-8.03,0-13.85-5.36-13.85-13.54V2.73h3.65V24.55c0,5.99,4.28,10.05,10.21,10.05s10.26-4.07,10.26-10.05V2.73h3.7V24.55c0,8.18-5.99,13.54-13.96,13.54"></path><path class="uuid-4952f7b9-0aa6-47f7-9b67-26fce97dddb5" d="M90.17,37.47l-8.07-14.74h-10.37v14.74h-3.65V2.73h15.05c5.52,0,10.11,3.7,10.11,10,0,4.64-2.61,8.02-7.25,9.48l8.44,15.26h-4.28Zm-6.98-31.31h-11.46v13.13h11.46c3.49,0,6.2-2.66,6.2-6.57s-2.87-6.56-6.2-6.56"></path><polygon class="uuid-4952f7b9-0aa6-47f7-9b67-26fce97dddb5" points="100.54 37.47 100.54 2.73 124.97 2.73 124.97 6.16 104.24 6.16 104.24 17.36 121.85 17.36 121.85 20.75 104.24 20.75 104.24 34.03 124.97 34.03 124.97 37.47 100.54 37.47"></polygon><polygon class="uuid-4952f7b9-0aa6-47f7-9b67-26fce97dddb5" points="129.92 37.47 129.92 34.03 151.07 6.16 130.76 6.16 130.76 2.73 155.65 2.73 155.65 6.16 134.51 34.03 156.07 34.03 156.07 37.47 129.92 37.47"></polygon><polygon class="uuid-4952f7b9-0aa6-47f7-9b67-26fce97dddb5" points="160.66 37.47 160.66 34.03 181.81 6.16 161.49 6.16 161.49 2.73 186.39 2.73 186.39 6.16 165.24 34.03 186.81 34.03 186.81 37.47 160.66 37.47"></polygon><polygon class="uuid-4952f7b9-0aa6-47f7-9b67-26fce97dddb5" points="209.47 2.73 204.47 2.73 190.14 37.47 193.79 37.47 198.11 27 199.53 23.56 199.52 23.56 206.91 5.59 215.56 27 219.89 37.47 223.79 37.47 209.47 2.73"></polygon></svg>