<svg xmlns="http://www.w3.org/2000/svg" id="uuid-116b0e8f-55ea-4f52-815d-521a799d1389" viewBox="0 0 223.34 35.37"><defs><style>.uuid-e37f55cb-aa34-4ddd-b205-9e75743d444e{fill:#252525;}</style></defs><path class="uuid-e37f55cb-aa34-4ddd-b205-9e75743d444e" d="M15.78,20.73H3.64v14.01H0V0H15.78C21.36,0,25.95,4.01,25.95,10.37s-4.38,10.37-10.16,10.37m.06-17.3H3.64v13.86H15.84c3.49,0,6.25-2.86,6.25-6.93s-2.86-6.93-6.25-6.93"></path><path class="uuid-e37f55cb-aa34-4ddd-b205-9e75743d444e" d="M45.48,35.37c-8.03,0-13.85-5.36-13.85-13.54V0h3.65V21.83c0,5.99,4.28,10.05,10.21,10.05s10.26-4.07,10.26-10.05V0h3.7V21.83c0,8.18-5.99,13.54-13.96,13.54"></path><path class="uuid-e37f55cb-aa34-4ddd-b205-9e75743d444e" d="M89.71,34.74l-8.07-14.74h-10.37v14.74h-3.65V0h15.05C88.2,0,92.79,3.7,92.79,10c0,4.64-2.61,8.02-7.25,9.48l8.44,15.26h-4.28Zm-6.98-31.31h-11.46v13.13h11.46c3.49,0,6.2-2.66,6.2-6.56s-2.87-6.56-6.2-6.56"></path><polygon class="uuid-e37f55cb-aa34-4ddd-b205-9e75743d444e" points="100.08 34.74 100.08 0 124.52 0 124.52 3.44 103.78 3.44 103.78 14.63 121.39 14.63 121.39 18.02 103.78 18.02 103.78 31.3 124.52 31.3 124.52 34.74 100.08 34.74"></polygon><polygon class="uuid-e37f55cb-aa34-4ddd-b205-9e75743d444e" points="129.46 34.74 129.46 31.3 150.61 3.44 130.3 3.44 130.3 0 155.2 0 155.2 3.44 134.05 31.3 155.62 31.3 155.62 34.74 129.46 34.74"></polygon><polygon class="uuid-e37f55cb-aa34-4ddd-b205-9e75743d444e" points="160.2 34.74 160.2 31.3 181.35 3.44 161.03 3.44 161.03 0 185.94 0 185.94 3.44 164.79 31.3 186.35 31.3 186.35 34.74 160.2 34.74"></polygon><polygon class="uuid-e37f55cb-aa34-4ddd-b205-9e75743d444e" points="209.02 0 204.01 0 189.69 34.74 193.33 34.74 197.66 24.27 199.07 20.84 199.07 20.84 206.46 2.86 215.11 24.27 219.44 34.74 223.34 34.74 209.02 0"></polygon></svg>